<svg width="48" height="48" viewBox="0 0 48 48" fill="none" xmlns="http://www.w3.org/2000/svg">
<rect width="48" height="48" rx="10" fill="black"/>
<path d="M34.8274 31.4947C34.4216 32.4322 33.9413 33.2951 33.3848 34.0885C32.6262 35.1701 32.005 35.9187 31.5264 36.3345C30.7843 37.0169 29.9893 37.3664 29.1379 37.3862C28.5267 37.3862 27.7897 37.2123 26.9317 36.8595C26.0709 36.5084 25.2798 36.3345 24.5565 36.3345C23.7979 36.3345 22.9843 36.5084 22.1141 36.8595C21.2425 37.2123 20.5404 37.3962 20.0036 37.4144C19.1872 37.4492 18.3735 37.0898 17.5612 36.3345C17.0428 35.8823 16.3943 35.1071 15.6175 34.009C14.784 32.8363 14.0988 31.4765 13.562 29.9261C12.9871 28.2516 12.6989 26.63 12.6989 25.0602C12.6989 23.2619 13.0875 21.7109 13.8658 20.4112C14.4774 19.3672 15.2912 18.5437 16.3097 17.9391C17.3281 17.3346 18.4286 17.0265 19.6137 17.0068C20.2622 17.0068 21.1125 17.2074 22.1693 17.6016C23.223 17.9971 23.8996 18.1977 24.1963 18.1977C24.4181 18.1977 25.1697 17.9631 26.4439 17.4956C27.6489 17.0619 28.6659 16.8824 29.499 16.9531C31.7566 17.1353 33.4527 18.0253 34.5806 19.6286C32.5616 20.8519 31.5628 22.5654 31.5827 24.7635C31.6009 26.4757 32.222 27.9004 33.4427 29.0317C33.9959 29.5568 34.6138 29.9626 35.3011 30.2508C35.1521 30.6831 34.9947 31.0972 34.8274 31.4947ZM29.6497 11.1202C29.6497 12.4622 29.1595 13.7152 28.1822 14.8749C27.0029 16.2536 25.5765 17.0503 24.0297 16.9246C24.0099 16.7636 23.9985 16.5942 23.9985 16.4161C23.9985 15.1278 24.5593 13.7491 25.5553 12.6218C26.0525 12.051 26.6849 11.5765 27.4518 11.1979C28.217 10.8249 28.9408 10.6187 29.6216 10.5834C29.6415 10.7628 29.6497 10.9422 29.6497 11.1202V11.1202Z" fill="white"/>
</svg>
