<svg width="28" height="24" viewBox="0 0 28 24" fill="none" xmlns="http://www.w3.org/2000/svg">
<path d="M4.6666 9.55C5.14493 9.55 5.5416 9.21 5.5416 8.8V4.75H10.2666C10.7449 4.75 11.1416 4.41 11.1416 4C11.1416 3.59 10.7449 3.25 10.2666 3.25H4.6666C4.18827 3.25 3.7916 3.59 3.7916 4V8.8C3.7916 9.21 4.18827 9.55 4.6666 9.55Z" fill="white"/>
<path d="M15.1084 14.95L17.2667 16.8C17.7217 17.19 18.4451 17.19 18.9117 16.81C19.0401 16.7 19.1684 16.6 19.2967 16.49C20.4984 15.45 21.5834 14.36 22.5517 13.22C23.5084 12.08 24.2784 10.94 24.8384 9.81C25.3867 8.67 25.6667 7.58 25.6667 6.54C25.6667 5.86 25.5267 5.21 25.2467 4.61C24.9667 4 24.5234 3.44 23.9051 2.94C23.1584 2.31 22.3417 2 21.4784 2C21.1517 2 20.8251 2.06 20.5334 2.18C20.2301 2.3 19.9617 2.48 19.7517 2.74L17.0451 6.01C16.8351 6.26 16.6834 6.49 16.5784 6.71C16.4734 6.92 16.4151 7.13 16.4151 7.32C16.4151 7.56 16.4967 7.8 16.6601 8.03C16.8117 8.26 17.0334 8.5 17.3134 8.74L18.2001 9.53C18.3284 9.64 18.3867 9.77 18.3867 9.93C18.3867 10.01 18.3751 10.08 18.3517 10.16C18.3167 10.24 18.2817 10.3 18.2584 10.36C18.0484 10.69 17.6867 11.12 17.1734 11.64C16.6484 12.16 16.0884 12.69 15.4817 13.22C15.3651 13.32 15.2367 13.42 15.1201 13.52C14.6534 13.91 14.6417 14.55 15.1084 14.95Z" fill="white"/>
<path d="M2.36838 18.33C2.36838 18.61 2.42672 18.9 2.54338 19.18C2.57838 19.26 2.61338 19.34 2.66005 19.42C2.85838 19.78 3.11505 20.12 3.45338 20.44C4.02505 20.98 4.65505 21.37 5.36672 21.62C5.37838 21.62 5.39005 21.63 5.40172 21.63C6.09005 21.87 6.83672 22 7.64172 22C8.83172 22 10.1034 21.76 11.445 21.27C12.7867 20.78 14.1284 20.12 15.4584 19.29C15.9134 19 16.3684 18.71 16.8 18.4L12.985 15.13C12.6584 15.34 12.3667 15.5 12.1217 15.61C12.0634 15.63 11.9934 15.66 11.9117 15.69C11.8184 15.72 11.725 15.73 11.62 15.73C11.4217 15.73 11.27 15.67 11.1417 15.56L10.255 14.81C9.96338 14.56 9.68338 14.37 9.41505 14.25C9.14672 14.11 8.87838 14.04 8.58672 14.04C8.36505 14.04 8.13172 14.08 7.87505 14.17C7.61838 14.26 7.35005 14.39 7.05838 14.56L3.19672 16.91C2.89338 17.09 2.68338 17.3 2.55505 17.55C2.43838 17.8 2.36838 18.05 2.36838 18.33Z" fill="white"/>
</svg>
