<svg width="48" height="48" viewBox="0 0 48 48" fill="none" xmlns="http://www.w3.org/2000/svg">
<rect width="48" height="48" rx="10" fill="#1877F2"/>
<path d="M38 24C38 16.268 31.732 10 24 10C16.268 10 10 16.268 10 24C10 30.9878 15.1196 36.7797 21.8125 37.83V28.0469H18.2578V24H21.8125V20.9157C21.8125 17.4069 23.9026 15.4688 27.1005 15.4688C28.6322 15.4688 30.2344 15.7422 30.2344 15.7422V19.1875H28.469C26.7299 19.1875 26.1875 20.2667 26.1875 21.3739V24H30.0703L29.4496 28.0469H26.1875V37.83C32.8804 36.7797 38 30.9878 38 24Z" fill="white"/>
</svg>
