<svg width="48" height="48" viewBox="0 0 48 48" fill="none" xmlns="http://www.w3.org/2000/svg">
<rect width="48" height="48" rx="10" fill="#1877F2"/>
<path d="M35.6666 28.8883C35.6666 33.1349 33.1349 35.6666 28.8883 35.6666H27.4999C26.8583 35.6666 26.3333 35.1416 26.3333 34.4999V27.7683C26.3333 27.4533 26.5899 27.1849 26.9049 27.1849L28.9583 27.1499C29.1216 27.1383 29.2616 27.0216 29.2966 26.8583L29.7049 24.6299C29.7399 24.4199 29.5766 24.2216 29.3549 24.2216L26.8699 24.2566C26.5432 24.2566 26.2866 23.9999 26.2749 23.6849L26.2283 20.8266C26.2283 20.6399 26.3799 20.4766 26.5782 20.4766L29.3782 20.4299C29.5766 20.4299 29.7283 20.2783 29.7283 20.0799L29.6816 17.2799C29.6816 17.0816 29.5299 16.9299 29.3316 16.9299L26.1816 16.9766C24.2449 17.0116 22.7049 18.5983 22.7399 20.5349L22.7983 23.7433C22.8099 24.0699 22.5533 24.3266 22.2266 24.3383L20.8266 24.3616C20.6283 24.3616 20.4766 24.5132 20.4766 24.7116L20.5116 26.9283C20.5116 27.1266 20.6632 27.2782 20.8616 27.2782L22.2616 27.2549C22.5883 27.2549 22.8449 27.5116 22.8566 27.8266L22.9616 34.4766C22.9732 35.1299 22.4482 35.6666 21.7949 35.6666H19.1116C14.8649 35.6666 12.3333 33.1349 12.3333 28.8766V19.1116C12.3333 14.8649 14.8649 12.3333 19.1116 12.3333H28.8883C33.1349 12.3333 35.6666 14.8649 35.6666 19.1116V28.8883V28.8883Z" fill="white"/>
</svg>
