<svg width="16" height="20" viewBox="0 0 16 20" fill="none" xmlns="http://www.w3.org/2000/svg">
<g clip-path="url(#clip0_165_1338)">
<path d="M4.48987 11.7384C4.26251 11.1921 4.03641 10.6715 3.82668 10.1439C3.21451 8.6045 3.16539 6.99499 3.23404 5.37171C3.27371 4.44743 3.39023 3.53755 3.73095 2.66833C4.32486 1.15269 5.45725 0.311638 7.05506 0.0757183C7.88515 -0.046935 8.71712 -0.0275357 9.53461 0.183353C11.0052 0.562577 11.9298 1.51314 12.4084 2.92303C12.6565 3.65332 12.751 4.40989 12.8058 5.17522C12.967 7.43679 12.6836 9.61577 11.601 11.6464C11.0134 12.7491 10.32 13.7753 9.36897 14.6108C8.65351 15.239 7.83602 15.6189 6.87683 15.7159C5.50385 15.8542 4.14725 15.826 2.81459 15.4355C1.97191 15.189 1.18276 14.8317 0.488086 14.2879C0.127207 14.005 0.107054 13.8529 0.368423 13.4831C0.99067 12.6026 1.77037 11.938 2.87631 11.7697C3.29198 11.7065 3.72025 11.7272 4.14347 11.7159C4.25747 11.7128 4.37209 11.7309 4.48987 11.739V11.7384ZM10.9731 5.88235C10.9731 5.78848 10.9762 5.69524 10.9731 5.60138C10.9643 5.36733 10.946 5.13329 10.9447 4.89987C10.9435 4.65519 10.8364 4.49687 10.6198 4.37797C8.7908 3.37234 6.97067 3.38423 5.15053 4.39987C4.95718 4.50751 4.87468 4.65895 4.86208 4.87171C4.80288 5.87985 4.82366 6.88423 5.00001 7.8811C5.14486 8.70213 5.37348 9.49312 5.88551 10.1733C6.8277 11.4262 8.62643 11.5363 9.71599 10.4086C10.0649 10.0476 10.2948 9.61452 10.468 9.15019C10.8603 8.09574 10.9542 6.99499 10.9737 5.8836L10.9731 5.88235Z" fill="black"/>
<path d="M0.539103 15.3072C2.81396 16.6383 5.23871 16.8179 7.76486 16.3817C7.77745 16.4837 7.78249 16.5851 7.80327 16.6821C7.94687 17.341 8.58549 17.7759 9.24364 17.5857C10.8572 17.1195 12.2207 16.2866 13.0294 14.7572C13.2668 14.3085 13.4092 13.811 13.5981 13.3279C14.0994 13.7334 14.5031 14.2515 14.8174 14.8435C15.3112 15.7741 15.5215 16.7778 15.5511 17.8166C15.5681 18.4155 15.5178 19.0169 15.4787 19.6157C15.4623 19.8686 15.3231 19.9893 15.0819 19.9912C14.2493 19.9968 13.4167 19.9931 12.5841 19.9925C12.5627 19.9925 12.5413 19.9812 12.496 19.9687C12.496 19.8873 12.496 19.8035 12.496 19.7196C12.496 18.861 12.4972 18.0018 12.4953 17.1433C12.4953 16.8291 12.341 16.6495 12.0841 16.6539C11.8347 16.6583 11.6936 16.8279 11.693 17.1345C11.6917 17.9931 11.693 18.8523 11.693 19.7109C11.693 19.7953 11.693 19.8792 11.693 19.9793H3.62326C3.62326 19.8886 3.62326 19.8054 3.62326 19.7221C3.62326 18.8948 3.62326 18.0669 3.62326 17.2396C3.62326 17.1696 3.62641 17.0982 3.61696 17.0294C3.5861 16.8003 3.42109 16.652 3.20759 16.657C2.98338 16.662 2.82781 16.8204 2.82026 17.0707C2.81207 17.336 2.81774 17.6013 2.81774 17.8667C2.81774 18.4837 2.81774 19.1001 2.81774 19.7171C2.81774 19.801 2.81774 19.8855 2.81774 19.9993C2.60549 19.9993 2.4197 19.9993 2.23391 19.9993C1.66834 19.9993 1.10278 20.0018 0.537214 19.9975C0.265138 19.9956 0.119653 19.8905 0.090052 19.6464C-0.0818847 18.2196 -0.0365388 16.8116 0.474863 15.4462C0.491238 15.403 0.513281 15.3617 0.539103 15.3072Z" fill="black"/>
<path d="M12.7315 11.1508C13.093 13.0093 12.569 14.9248 10.7426 16.0456C10.2469 16.3498 9.68702 16.5506 9.15232 16.7891C8.97093 16.8698 8.76058 16.8498 8.67618 16.6677C8.60061 16.5043 8.61446 16.2978 8.60438 16.1095C8.60313 16.0807 8.68248 16.0419 8.72972 16.0168C9.62908 15.5469 10.354 14.8742 10.9725 14.0863C11.635 13.2415 12.21 12.3416 12.6314 11.351C12.6553 11.2953 12.6855 11.2427 12.7315 11.1514V11.1508Z" fill="black"/>
</g>
<defs>
<clipPath id="clip0_165_1338">
<rect width="15.5556" height="20" fill="white"/>
</clipPath>
</defs>
</svg>
