<svg width="48" height="48" viewBox="0 0 48 48" fill="none" xmlns="http://www.w3.org/2000/svg">
<rect width="48" height="48" rx="10" fill="#F2F2F2"/>
<path fill-rule="evenodd" clip-rule="evenodd" d="M37.44 24.3182C37.44 23.3255 37.3509 22.371 37.1855 21.4546H24V26.87H31.5345C31.21 28.62 30.2236 30.1028 28.7409 31.0955V34.6082H33.2655C35.9127 32.171 37.44 28.5819 37.44 24.3182Z" fill="#4285F4"/>
<path fill-rule="evenodd" clip-rule="evenodd" d="M23.9999 37.9998C27.7799 37.9998 30.949 36.7462 33.2654 34.608L28.7408 31.0952C27.4872 31.9352 25.8836 32.4316 23.9999 32.4316C20.3536 32.4316 17.2672 29.9689 16.1663 26.6598H11.489V30.2871C13.7927 34.8625 18.5272 37.9998 23.9999 37.9998Z" fill="#34A853"/>
<path fill-rule="evenodd" clip-rule="evenodd" d="M16.1664 26.6602C15.8864 25.8202 15.7273 24.9229 15.7273 24.0002C15.7273 23.0774 15.8864 22.1802 16.1664 21.3402V17.7129H11.4891C10.5409 19.6029 10 21.7411 10 24.0002C10 26.2593 10.5409 28.3974 11.4891 30.2874L16.1664 26.6602Z" fill="#FBBC05"/>
<path fill-rule="evenodd" clip-rule="evenodd" d="M23.9999 15.5682C26.0554 15.5682 27.9008 16.2745 29.3517 17.6618L33.3672 13.6464C30.9427 11.3873 27.7736 10 23.9999 10C18.5272 10 13.7927 13.1373 11.489 17.7127L16.1663 21.34C17.2672 18.0309 20.3536 15.5682 23.9999 15.5682Z" fill="#B31018"/>
</svg>
