<svg width="20" height="20" viewBox="0 0 20 20" fill="none" xmlns="http://www.w3.org/2000/svg">
<g clip-path="url(#clip0_165_1334)">
<path d="M12.6777 14.1632C12.4558 13.83 12.2464 13.5171 12.015 13.1696C10.677 13.9919 9.32885 14.0032 7.98191 13.1666C7.75106 13.5135 7.5387 13.8318 7.31859 14.1626C8.00578 14.5482 8.73889 14.6803 9.50243 14.7469V19.9969H4.76132C4.76132 19.9077 4.76132 19.8297 4.76132 19.7512C4.76132 19.2163 4.7649 18.682 4.75953 18.1472C4.75655 17.8384 4.58714 17.6408 4.32706 17.6194C4.02045 17.5944 3.8069 17.8003 3.80272 18.1436C3.79616 18.6707 3.80093 19.1979 3.80093 19.725C3.80093 19.8053 3.80093 19.8863 3.80093 19.9785C3.73651 19.9868 3.68759 19.9993 3.63808 19.9993C2.61088 19.9951 1.58368 19.9904 0.556479 19.9844C0.138321 19.982 -0.0573365 19.747 0.0142455 19.3407C0.191411 18.3292 0.453282 17.3433 0.883966 16.4057C0.922143 16.323 0.897686 16.1909 0.860702 16.0975C0.294608 14.6683 0.670414 13.1756 1.85331 12.2748C2.1283 12.0653 2.44445 11.9035 2.75583 11.7488C3.09704 11.5787 3.25512 11.3133 3.30523 10.9456C3.38993 10.3209 3.242 9.71818 3.15073 9.11131C3.02427 8.27121 3.23961 7.5269 3.70787 6.83494C3.77767 6.73201 3.81883 6.59695 3.83493 6.47141C3.90532 5.92523 3.96557 5.37488 4.28709 4.90604C4.41176 4.72457 4.58654 4.57821 4.72613 4.40567C4.77325 4.34736 4.81322 4.25038 4.8001 4.18196C4.6617 3.45312 4.92596 2.89563 5.59048 2.52972C5.64118 2.50176 5.70024 2.44464 5.70919 2.39347C5.89351 1.30467 6.60873 0.684712 7.59835 0.378301C9.25548 -0.134565 10.9311 -0.139325 12.5745 0.440773C13.4824 0.761463 14.1147 1.38083 14.2853 2.37979C14.2942 2.43334 14.345 2.4964 14.3933 2.52377C15.0846 2.91705 15.3298 3.42992 15.192 4.1891C15.1813 4.24979 15.1998 4.34736 15.2421 4.38128C15.9227 4.91973 16.0754 5.68308 16.1619 6.47974C16.1757 6.60409 16.2204 6.74094 16.2932 6.84149C16.9088 7.69408 16.9643 8.62997 16.7758 9.62715C16.694 10.0591 16.6994 10.5107 16.7018 10.9533C16.7036 11.3139 16.8909 11.5828 17.2303 11.7387C17.7898 11.9951 18.304 12.3129 18.693 12.8061C19.4875 13.8134 19.5615 14.9165 19.1332 16.0826C19.0771 16.2349 19.0753 16.3503 19.1445 16.4991C19.577 17.4272 19.8257 18.4107 19.994 19.4162C20.0453 19.7232 19.8448 19.9785 19.5424 19.982C18.4555 19.9945 17.3693 19.9945 16.2824 19.9987C16.2622 19.9987 16.2419 19.9874 16.1959 19.9737C16.1959 19.7048 16.1959 19.4323 16.1959 19.1598C16.1959 18.8183 16.2013 18.4768 16.1936 18.1353C16.1864 17.8128 15.9901 17.6129 15.7044 17.6182C15.4312 17.6236 15.2415 17.8235 15.2379 18.1353C15.2314 18.6695 15.2361 19.2044 15.2356 19.7393C15.2356 19.8184 15.2356 19.8982 15.2356 19.9951H10.4944V14.7493C11.2478 14.6838 11.9822 14.5523 12.6795 14.1644L12.6777 14.1632ZM13.3351 6.38217C11.0975 6.14537 8.88564 6.13644 6.65884 6.38752C6.65884 6.91586 6.69344 7.4079 6.6493 7.8928C6.60575 8.37354 6.78769 8.73707 7.08237 9.07977C7.38957 9.43735 7.71229 9.77232 8.17161 9.93653C8.40663 10.0204 8.61124 10.0192 8.83792 9.86038C9.48633 9.40463 10.5177 9.41355 11.1733 9.8693C11.3582 9.99782 11.5318 10.0335 11.7346 9.96212C11.8533 9.92047 11.9756 9.8812 12.083 9.81814C12.6186 9.50518 12.9861 9.03277 13.2993 8.51277C13.3213 8.47647 13.3339 8.42887 13.3339 8.38663C13.3362 7.73454 13.3356 7.08245 13.3356 6.38157L13.3351 6.38217ZM18.3869 15.249C18.5218 14.5755 18.3816 13.9806 17.9765 13.4409C17.6759 13.0411 17.2619 12.7995 16.8205 12.5937C16.1685 12.2897 15.844 11.7679 15.7486 11.0658C15.6609 10.4197 15.7623 9.79196 15.8768 9.16485C16.014 8.41221 15.8613 7.74941 15.3304 7.18955C15.0494 6.89325 14.6903 6.73201 14.2847 6.61361C14.2847 7.70658 14.2722 8.76801 14.2889 9.82884C14.3014 10.6422 14.0288 11.3413 13.514 11.9535C13.3046 12.2022 13.063 12.4247 12.8268 12.6686C13.0147 12.9501 13.2205 13.2315 13.3965 13.5308C13.514 13.7307 13.6482 13.8312 13.891 13.8074C14.0741 13.7896 14.262 13.8187 14.4476 13.8348C15.8786 13.9615 17.2589 14.2293 18.3875 15.249H18.3869ZM1.61828 15.2681C2.05433 14.7998 2.58225 14.5357 3.14238 14.3251C4.13617 13.9514 5.17352 13.8282 6.22637 13.7961C6.3063 13.7937 6.41904 13.7729 6.45782 13.7188C6.70656 13.3707 6.93861 13.0114 7.179 12.652C7.08654 12.5699 7.00721 12.5032 6.93145 12.4324C6.3063 11.8506 5.83505 11.1776 5.73305 10.3072C5.69547 9.98473 5.71157 9.65511 5.71098 9.32907C5.70859 8.43185 5.71038 7.53463 5.71038 6.61242C5.16397 6.77723 4.71957 7.03485 4.40759 7.50964C4.06578 8.02905 4.03059 8.58178 4.11887 9.17437C4.19523 9.68605 4.26502 10.2049 4.2686 10.7207C4.27457 11.6209 3.90115 12.3117 3.02606 12.6698C2.93002 12.7091 2.83935 12.7621 2.74868 12.812C1.85629 13.3053 1.39041 14.2959 1.61828 15.2675V15.2681ZM10.0107 3.35733C8.90294 3.35733 7.79521 3.35733 6.68747 3.35733C6.50912 3.35733 6.33016 3.35138 6.1524 3.36268C5.90306 3.37875 5.72171 3.56973 5.71217 3.8101C5.70203 4.05583 5.88397 4.26704 6.13749 4.29857C6.2037 4.3069 6.27111 4.30333 6.33792 4.30333C8.77647 4.30333 11.215 4.30333 13.6536 4.30333C13.7282 4.30333 13.8033 4.3075 13.8761 4.29679C14.1165 4.2605 14.2907 4.05047 14.2829 3.81427C14.2752 3.5739 14.0944 3.3847 13.8469 3.36149C13.7729 3.35495 13.6983 3.35673 13.6238 3.35673C12.4194 3.35673 11.215 3.35673 10.0107 3.35673V3.35733Z" fill="black"/>
</g>
<defs>
<clipPath id="clip0_165_1334">
<rect width="20" height="20" fill="white"/>
</clipPath>
</defs>
</svg>
