<svg width="30" height="30" viewBox="0 0 30 30" fill="none" xmlns="http://www.w3.org/2000/svg">
<g clip-path="url(#clip0_201_1257)">
<path d="M19.0165 21.2448C18.6837 20.745 18.3696 20.2756 18.0224 19.7544C16.0155 20.9877 13.9933 21.0047 11.9729 19.7499C11.6266 20.2702 11.3081 20.7477 10.9779 21.2439C12.0087 21.8222 13.1083 22.0203 14.2537 22.1203V29.9953H7.14198C7.14198 29.8615 7.14198 29.7445 7.14198 29.6267C7.14198 28.8244 7.14735 28.023 7.1393 27.2207C7.13483 26.7575 6.88071 26.4612 6.49059 26.4291C6.03067 26.3916 5.71035 26.7004 5.70408 27.2153C5.69424 28.006 5.7014 28.7968 5.7014 29.5875C5.7014 29.708 5.7014 29.8293 5.7014 29.9677C5.60476 29.9802 5.53139 29.9989 5.45712 29.9989C3.91632 29.9926 2.37552 29.9855 0.834718 29.9766C0.207481 29.973 -0.0860047 29.6205 0.0213682 29.0109C0.287116 27.4938 0.679922 26.015 1.32595 24.6084C1.38322 24.4844 1.34653 24.2863 1.29105 24.1462C0.441912 22.0025 1.00562 19.7633 2.77996 18.4121C3.19245 18.098 3.66668 17.8552 4.13375 17.6232C4.64556 17.3679 4.88268 16.9699 4.95784 16.4184C5.0849 15.4813 4.86299 14.5772 4.72609 13.6669C4.5364 12.4067 4.85941 11.2903 5.56181 10.2524C5.6665 10.098 5.72824 9.89537 5.7524 9.70706C5.85798 8.88778 5.94836 8.06226 6.43064 7.359C6.61765 7.0868 6.87982 6.86726 7.08919 6.60844C7.15988 6.52098 7.21983 6.37551 7.20015 6.27288C6.99256 5.17962 7.38894 4.34338 8.38572 3.79452C8.46178 3.75258 8.55036 3.6669 8.56378 3.59015C8.84027 1.95695 9.9131 1.02701 11.3975 0.567391C13.8832 -0.201909 16.3966 -0.209048 18.8617 0.661099C20.2236 1.14213 21.1721 2.07118 21.428 3.56962C21.4414 3.64994 21.5174 3.74454 21.5899 3.7856C22.627 4.37551 22.9947 5.14481 22.788 6.28359C22.7719 6.37462 22.7996 6.52098 22.8632 6.57185C23.8841 7.37953 24.1132 8.52455 24.2429 9.71956C24.2635 9.90608 24.3306 10.1113 24.4398 10.2622C25.3632 11.5411 25.4464 12.9449 25.1636 14.4407C25.0411 15.0886 25.0491 15.766 25.0527 16.43C25.0554 16.9708 25.3363 17.3742 25.8455 17.608C26.6848 17.9926 27.4561 18.4692 28.0394 19.2091C29.2313 20.72 29.3422 22.3746 28.6998 24.1238C28.6157 24.3523 28.613 24.5254 28.7168 24.7486C29.3655 26.1408 29.7386 27.616 29.9909 29.1243C30.0679 29.5848 29.7673 29.9677 29.3136 29.973C27.6833 29.9918 26.0539 29.9918 24.4237 29.998C24.3932 29.998 24.3628 29.981 24.2939 29.9605C24.2939 29.5571 24.2939 29.1484 24.2939 28.7396C24.2939 28.2274 24.302 27.7151 24.2903 27.2028C24.2796 26.7191 23.9852 26.4192 23.5566 26.4273C23.1468 26.4353 22.8623 26.7352 22.8569 27.2028C22.8471 28.0042 22.8542 28.8066 22.8533 29.6089C22.8533 29.7276 22.8533 29.8472 22.8533 29.9926H15.7417V22.1238C16.8718 22.0257 17.9732 21.8284 19.0192 21.2466L19.0165 21.2448ZM20.0026 9.57319C16.6463 9.21799 13.3285 9.20461 9.98826 9.58122C9.98826 10.3737 10.0402 11.1118 9.97395 11.8391C9.90863 12.5603 10.1815 13.1055 10.6236 13.6196C11.0844 14.156 11.5684 14.6584 12.2574 14.9047C12.61 15.0306 12.9169 15.0288 13.2569 14.7905C14.2295 14.1069 15.7766 14.1203 16.7599 14.8039C17.0373 14.9967 17.2977 15.0502 17.6019 14.9431C17.78 14.8806 17.9634 14.8217 18.1244 14.7271C18.928 14.2577 19.4791 13.5491 19.9489 12.7691C19.982 12.7146 20.0008 12.6433 20.0008 12.5799C20.0044 11.6018 20.0035 10.6236 20.0035 9.5723L20.0026 9.57319ZM27.5804 22.8735C27.7826 21.8632 27.5724 20.9708 26.9648 20.1613C26.5139 19.5616 25.8929 19.1993 25.2307 18.8905C24.2528 18.4344 23.766 17.6517 23.6228 16.5986C23.4913 15.6294 23.6434 14.6879 23.8152 13.7472C24.021 12.6183 23.792 11.6241 22.9956 10.7843C22.5742 10.3398 22.0355 10.098 21.4271 9.92036C21.4271 11.5598 21.4083 13.152 21.4333 14.7432C21.4521 15.9632 21.0432 17.0118 20.271 17.9302C19.9569 18.3032 19.5946 18.637 19.2402 19.0029C19.5221 19.425 19.8308 19.8472 20.0947 20.2961C20.271 20.596 20.4723 20.7468 20.8365 20.7111C21.1112 20.6843 21.3931 20.728 21.6713 20.7521C23.8179 20.9422 25.8884 21.3438 27.5813 22.8735H27.5804ZM2.42742 22.9021C3.0815 22.1997 3.87337 21.8034 4.71357 21.4875C6.20426 20.9271 7.76027 20.7423 9.33955 20.6941C9.45945 20.6906 9.62856 20.6593 9.68672 20.5781C10.0598 20.056 10.4079 19.517 10.7685 18.9779C10.6298 18.8548 10.5108 18.7548 10.3972 18.6486C9.45945 17.7758 8.75258 16.7664 8.59957 15.4607C8.5432 14.977 8.56736 14.4826 8.56647 13.9935C8.56289 12.6477 8.56557 11.3019 8.56557 9.91857C7.74596 10.1658 7.07935 10.5522 6.61138 11.2644C6.09868 12.0435 6.04589 12.8726 6.17831 13.7615C6.29284 14.529 6.39753 15.3072 6.4029 16.081C6.41185 17.4313 5.85172 18.4674 4.53909 19.0047C4.39503 19.0636 4.25902 19.143 4.12302 19.218C2.78443 19.9578 2.08561 21.4438 2.42742 22.9012V22.9021ZM15.016 5.03593C13.3544 5.03593 11.6928 5.03593 10.0312 5.03593C9.76367 5.03593 9.49524 5.02701 9.2286 5.04396C8.85458 5.06806 8.58257 5.35454 8.56826 5.71509C8.55305 6.08368 8.82595 6.4005 9.20623 6.4478C9.30555 6.4603 9.40666 6.45494 9.50687 6.45494C13.1647 6.45494 16.8226 6.45494 20.4804 6.45494C20.5922 6.45494 20.705 6.46119 20.8141 6.44512C21.1747 6.39068 21.436 6.07565 21.4244 5.72134C21.4127 5.36079 21.1416 5.07698 20.7703 5.04218C20.6593 5.03236 20.5475 5.03504 20.4357 5.03504C18.6291 5.03504 16.8226 5.03504 15.016 5.03504V5.03593Z" fill="white"/>
</g>
<defs>
<clipPath id="clip0_201_1257">
<rect width="30" height="30" fill="white"/>
</clipPath>
</defs>
</svg>
