<svg width="22" height="22" viewBox="0 0 22 22" fill="none" xmlns="http://www.w3.org/2000/svg">
<path d="M10.7669 1.68599C10.8492 1.47273 11.151 1.47272 11.2333 1.68597L12.6382 5.32377C12.9704 6.18399 13.9132 6.63882 14.7932 6.36348L18.4511 5.21906C18.6669 5.15157 18.8543 5.3823 18.744 5.57962L16.7958 9.06563C16.3586 9.84806 16.5832 10.8344 17.3161 11.3504L20.5503 13.627C20.7339 13.7563 20.6672 14.0434 20.4454 14.0784L16.6093 14.6841C15.7126 14.8257 15.0731 15.6294 15.1365 16.5349L15.4136 20.4934C15.4295 20.7206 15.158 20.849 14.9925 20.6924L12.2025 18.0539C11.5278 17.4159 10.4722 17.4159 9.79753 18.054L7.00816 20.6922C6.84264 20.8488 6.57107 20.7204 6.58698 20.4931L6.86411 16.535C6.92752 15.6294 6.28797 14.8257 5.39131 14.6841L1.55467 14.0784C1.33283 14.0434 1.2661 13.7563 1.44975 13.627L4.68393 11.3503C5.41683 10.8344 5.64146 9.84812 5.20427 9.0657L3.25632 5.57953C3.14606 5.3822 3.33348 5.15149 3.5492 5.21898L7.20731 6.36346C8.08743 6.63881 9.03021 6.18392 9.36237 5.32362L10.7669 1.68599Z" stroke="#1D1D1D" stroke-width="1.5"/>
</svg>
