<svg width="18" height="17" viewBox="0 0 18 17" fill="none" xmlns="http://www.w3.org/2000/svg">
<path d="M7.21718 1.50667C7.95851 0.0485346 10.0415 0.0485368 10.7828 1.50667L11.029 1.99098C11.4374 2.79412 12.3323 3.22509 13.2148 3.04358L13.747 2.93412C15.3492 2.60458 16.6479 4.23313 15.9701 5.72185L15.745 6.21632C15.3716 7.03631 15.5927 8.00468 16.2848 8.58148L16.7022 8.9293C17.9588 9.97651 17.4953 12.0073 15.9087 12.4055L15.3818 12.5378C14.5079 12.7572 13.8886 13.5338 13.8692 14.4345L13.8575 14.9777C13.8222 16.6131 11.9455 17.5169 10.645 16.5248L10.213 16.1953C9.49664 15.6488 8.50336 15.6488 7.78701 16.1953L7.35503 16.5248C6.05445 17.5169 4.17775 16.6131 4.1425 14.9777L4.13079 14.4345C4.11138 13.5338 3.49208 12.7572 2.61822 12.5378L2.09126 12.4055C0.50472 12.0073 0.0412152 9.97651 1.29783 8.9293L1.71521 8.58148C2.40735 8.00468 2.62837 7.0363 2.25504 6.21632L2.02991 5.72185C1.3521 4.23312 2.65082 2.60458 4.25305 2.93412L4.78522 3.04358C5.66772 3.22509 6.56263 2.79412 6.97095 1.99098L7.21718 1.50667Z" fill="#B31018"/>
</svg>
