<svg width="28" height="28" viewBox="0 0 28 28" fill="none" xmlns="http://www.w3.org/2000/svg">
<path d="M2.33337 11.3752C1.85504 11.3752 1.45837 10.9785 1.45837 10.5002V7.5835C1.45837 4.20016 4.21171 1.4585 7.58337 1.4585H10.5C10.9784 1.4585 11.375 1.85516 11.375 2.3335C11.375 2.81183 10.9784 3.2085 10.5 3.2085H7.58337C5.16837 3.2085 3.20837 5.1685 3.20837 7.5835V10.5002C3.20837 10.9785 2.81171 11.3752 2.33337 11.3752Z" fill="white"/>
<path d="M25.6667 11.3752C25.1883 11.3752 24.7917 10.9785 24.7917 10.5002V7.5835C24.7917 5.1685 22.8317 3.2085 20.4167 3.2085H17.5C17.0217 3.2085 16.625 2.81183 16.625 2.3335C16.625 1.85516 17.0217 1.4585 17.5 1.4585H20.4167C23.7883 1.4585 26.5417 4.20016 26.5417 7.5835V10.5002C26.5417 10.9785 26.145 11.3752 25.6667 11.3752Z" fill="white"/>
<path d="M20.4166 26.5415H18.6666C18.1883 26.5415 17.7916 26.1448 17.7916 25.6665C17.7916 25.1882 18.1883 24.7915 18.6666 24.7915H20.4166C22.8316 24.7915 24.7916 22.8315 24.7916 20.4165V18.6665C24.7916 18.1882 25.1883 17.7915 25.6666 17.7915C26.145 17.7915 26.5416 18.1882 26.5416 18.6665V20.4165C26.5416 23.7998 23.7883 26.5415 20.4166 26.5415Z" fill="white"/>
<path d="M10.5 26.5417H7.58337C4.21171 26.5417 1.45837 23.8 1.45837 20.4167V17.5C1.45837 17.0217 1.85504 16.625 2.33337 16.625C2.81171 16.625 3.20837 17.0217 3.20837 17.5V20.4167C3.20837 22.8317 5.16837 24.7917 7.58337 24.7917H10.5C10.9784 24.7917 11.375 25.1883 11.375 25.6667C11.375 26.145 10.9784 26.5417 10.5 26.5417Z" fill="white"/>
<path d="M9.91664 13.2766C11.7723 13.2766 13.2766 11.7723 13.2766 9.91664C13.2766 8.06096 11.7723 6.55664 9.91664 6.55664C8.06096 6.55664 6.55664 8.06096 6.55664 9.91664C6.55664 11.7723 8.06096 13.2766 9.91664 13.2766Z" fill="white"/>
<path d="M8.74997 21.4433C9.96132 21.4433 10.9433 20.4613 10.9433 19.25C10.9433 18.0386 9.96132 17.0566 8.74997 17.0566C7.53863 17.0566 6.55664 18.0386 6.55664 19.25C6.55664 20.4613 7.53863 21.4433 8.74997 21.4433Z" fill="white"/>
<path d="M19.25 10.9433C20.4613 10.9433 21.4433 9.96132 21.4433 8.74997C21.4433 7.53863 20.4613 6.55664 19.25 6.55664C18.0386 6.55664 17.0566 7.53863 17.0566 8.74997C17.0566 9.96132 18.0386 10.9433 19.25 10.9433Z" fill="white"/>
<path d="M18.0834 21.4431C19.9391 21.4431 21.4434 19.9388 21.4434 18.0831C21.4434 16.2275 19.9391 14.7231 18.0834 14.7231C16.2277 14.7231 14.7234 16.2275 14.7234 18.0831C14.7234 19.9388 16.2277 21.4431 18.0834 21.4431Z" fill="white"/>
</svg>
