<svg width="18" height="18" viewBox="0 0 18 18" fill="none" xmlns="http://www.w3.org/2000/svg">
<path d="M8.06723 1.41585C8.39659 0.562804 9.60353 0.562757 9.93296 1.41578L10.892 3.89901C11.0818 4.39056 11.6205 4.65047 12.1234 4.49313L14.6232 3.71103C15.4862 3.44105 16.2359 4.36396 15.7948 5.15325L14.4487 7.5618C14.1989 8.0089 14.3272 8.57253 14.746 8.86736L16.982 10.4414C17.7166 10.9585 17.4497 12.1067 16.5623 12.2468L13.9228 12.6636C13.4104 12.7445 13.045 13.2038 13.0812 13.7212L13.2716 16.441C13.3353 17.35 12.2491 17.8635 11.587 17.2374L9.68714 15.4407C9.3016 15.0761 8.69841 15.0761 8.31289 15.4407L6.41358 17.2371C5.75149 17.8633 4.66523 17.3499 4.72888 16.4408L4.91928 13.7212C4.95551 13.2038 4.59006 12.7445 4.07768 12.6636L1.4377 12.2468C0.550331 12.1067 0.283428 10.9585 1.01803 10.4413L3.25402 8.86732C3.67282 8.5725 3.80118 8.00892 3.55136 7.56182L2.20545 5.15312C1.76442 4.36382 2.51409 3.44098 3.377 3.71095L5.87703 4.49311C6.37996 4.65045 6.91869 4.39051 7.1085 3.89892L8.06723 1.41585Z" fill="#FBBC05"/>
</svg>
