<svg width="18" height="18" viewBox="0 0 18 18" fill="none" xmlns="http://www.w3.org/2000/svg">
<path d="M8.53366 1.59594C8.69835 1.16942 9.30182 1.1694 9.46653 1.59591L10.4255 4.07914C10.7103 4.81647 11.5183 5.20633 12.2727 4.97032L14.7725 4.18822C15.204 4.05323 15.5789 4.51468 15.3583 4.90933L14.0123 7.31787C13.6375 7.98853 13.83 8.83397 14.4582 9.27621L16.6942 10.8502C17.0615 11.1088 16.928 11.6829 16.4844 11.753L13.8448 12.1697C13.0763 12.2911 12.5281 12.98 12.5824 13.7562L12.7729 16.4759C12.8047 16.9304 12.2616 17.1872 11.9305 16.8741L10.0307 15.0774C9.45239 14.5305 8.5476 14.5305 7.96932 15.0775L6.07001 16.8739C5.73896 17.187 5.19583 16.9302 5.22766 16.4757L5.41806 13.7562C5.4724 12.98 4.92422 12.2911 4.15566 12.1698L1.51568 11.7529C1.07199 11.6829 0.938545 11.1088 1.30585 10.8502L3.54183 9.27618C4.17003 8.83395 4.36258 7.98858 3.98784 7.31793L2.64193 4.90922C2.42142 4.51457 2.79625 4.05315 3.22771 4.18814L5.72774 4.9703C6.48213 5.20632 7.29022 4.81641 7.57494 4.07901L8.53366 1.59594Z" stroke="#FBBC05"/>
</svg>
