<svg width="48" height="48" viewBox="0 0 48 48" fill="none" xmlns="http://www.w3.org/2000/svg">
<rect width="48" height="48" rx="10" fill="#25D366"/>
<path d="M35.6433 23.3116C35.2467 16.5449 29.0983 11.33 22.0167 12.4966C17.14 13.3016 13.2317 17.2566 12.4733 22.1333C12.03 24.9566 12.6134 27.6283 13.885 29.8333L12.8467 33.6949C12.6134 34.5699 13.4183 35.3633 14.2817 35.1183L18.085 34.0683C19.8117 35.0833 21.83 35.6666 23.9883 35.6666C30.5683 35.6666 36.0283 29.8683 35.6433 23.3116ZM29.6934 28.3399C29.5884 28.5499 29.46 28.7483 29.2967 28.935C29.005 29.25 28.69 29.4833 28.34 29.6233C27.99 29.7749 27.605 29.845 27.1967 29.845C26.6017 29.845 25.96 29.705 25.295 29.4133C24.6183 29.1216 23.9534 28.7366 23.2884 28.2583C22.6117 27.7683 21.9817 27.2199 21.375 26.6249C20.7684 26.0183 20.2317 25.3766 19.7417 24.7116C19.2633 24.0466 18.8783 23.3816 18.5983 22.7166C18.3183 22.0516 18.1784 21.41 18.1784 20.8033C18.1784 20.4066 18.2484 20.0216 18.3884 19.6716C18.5284 19.3099 18.75 18.9833 19.065 18.6916C19.4384 18.3183 19.8467 18.1433 20.2784 18.1433C20.4417 18.1433 20.605 18.1783 20.7567 18.2483C20.9083 18.3183 21.0484 18.4233 21.1534 18.5749L22.5067 20.4883C22.6117 20.6399 22.6933 20.7683 22.74 20.8966C22.7983 21.0249 22.8217 21.1416 22.8217 21.2583C22.8217 21.3983 22.775 21.5383 22.6934 21.6783C22.6117 21.8183 22.5067 21.9583 22.3667 22.0983L21.9233 22.5649C21.8533 22.6349 21.83 22.7049 21.83 22.7983C21.83 22.8449 21.8417 22.8916 21.8533 22.9383C21.8767 22.9849 21.8884 23.0199 21.9 23.0549C22.005 23.2533 22.1917 23.4983 22.4483 23.8016C22.7167 24.1049 22.9967 24.4199 23.3 24.7233C23.615 25.0383 23.9184 25.3183 24.2334 25.5866C24.5367 25.8433 24.7933 26.0183 24.9917 26.1233C25.0267 26.1349 25.0617 26.1583 25.0967 26.1699C25.1434 26.1933 25.19 26.1933 25.2484 26.1933C25.3534 26.1933 25.4234 26.1583 25.4934 26.0883L25.9367 25.6449C26.0883 25.4933 26.2284 25.3883 26.3567 25.3183C26.4967 25.2366 26.625 25.1899 26.7767 25.1899C26.8934 25.1899 27.01 25.2133 27.1384 25.2716C27.2667 25.3299 27.4067 25.3999 27.5467 25.5049L29.4834 26.8816C29.635 26.9866 29.74 27.1149 29.81 27.2549C29.8683 27.4066 29.9034 27.5466 29.9034 27.7099C29.8334 27.9083 29.7867 28.1299 29.6934 28.3399Z" fill="white"/>
</svg>
